<svg width="34" height="42" viewBox="0 0 34 42" fill="none" xmlns="http://www.w3.org/2000/svg">
<path d="M17 21C21.7174 21 25.5416 16.896 25.5416 11.8334C25.5416 6.77074 21.7174 2.66669 17 2.66669C12.2825 2.66669 8.45831 6.77074 8.45831 11.8334C8.45831 16.896 12.2825 21 17 21Z" stroke="#E0D230" stroke-width="4"/>
<path d="M25.5417 24.6667H26.1425C28.727 24.6667 30.9072 26.7321 31.2279 29.4845L31.895 35.2118C32.1499 37.4003 30.5597 39.3334 28.5046 39.3334H5.49535C3.44024 39.3334 1.85017 37.4003 2.10507 35.2118L2.77218 29.4845C3.09276 26.7321 5.27295 24.6667 7.85761 24.6667H8.45835" stroke="#E0D230" stroke-width="4" stroke-linecap="round" stroke-linejoin="round"/>
</svg>
