<svg width="438" height="704" viewBox="0 0 438 704" fill="none" xmlns="http://www.w3.org/2000/svg">
<path d="M438 71.5H268.5V18.5H45.5" stroke="#274E82" stroke-width="5"/>
<path d="M437 115.5H259.5L179 73.5H48" stroke="#274E82" stroke-width="5"/>
<path d="M437 172H317" stroke="#274E82" stroke-width="5"/>
<path d="M438 233.5H181" stroke="#274E82" stroke-width="5"/>
<path d="M438 302H252L169 342.5H43.5" stroke="#274E82" stroke-width="5"/>
<path d="M437 356H287" stroke="#274E82" stroke-width="5"/>
<path d="M438 413.5H202V453L180 471.5H46.5" stroke="#274E82" stroke-width="5"/>
<path d="M437 485H266" stroke="#274E82" stroke-width="5"/>
<path d="M438 571H107.5" stroke="#274E82" stroke-width="5"/>
<path d="M436 635H222L103 690H27" stroke="#274E82" stroke-width="5"/>
<circle cx="30.5" cy="17.5" r="14.5" stroke="#274E82" stroke-width="6"/>
<circle cx="301.5" cy="172.5" r="14.5" stroke="#274E82" stroke-width="6"/>
<circle cx="31.5" cy="472.5" r="14.5" stroke="#274E82" stroke-width="6"/>
<circle cx="95.5" cy="571.5" r="14.5" stroke="#274E82" stroke-width="6"/>
<circle cx="35.5" cy="73.5" r="13.5" fill="#274E82"/>
<circle cx="168.5" cy="233.5" r="13.5" fill="#274E82"/>
<circle cx="273.5" cy="355.5" r="13.5" fill="#274E82"/>
<circle cx="254.5" cy="486.5" r="13.5" fill="#274E82"/>
<circle cx="13.5" cy="690.5" r="13.5" fill="#274E82"/>
<circle cx="31.5" cy="341.5" r="14.5" stroke="#274E82" stroke-width="6"/>
<rect x="127" y="385" width="39" height="39" fill="#274E82"/>
<circle cx="133" cy="373" r="6" fill="#274E82"/>
<circle cx="160" cy="373" r="6" fill="#274E82"/>
<circle cx="133" cy="436" r="6" fill="#274E82"/>
<circle cx="160" cy="436" r="6" fill="#274E82"/>
<rect x="216" y="154" width="39" height="39" fill="#274E82"/>
<circle cx="222" cy="142" r="6" fill="#274E82"/>
<circle cx="249" cy="142" r="6" fill="#274E82"/>
<circle cx="222" cy="205" r="6" fill="#274E82"/>
<circle cx="249" cy="205" r="6" fill="#274E82"/>
<circle cx="266" cy="90" r="6" fill="#274E82"/>
<circle cx="254" cy="606" r="6" fill="#274E82"/>
<circle cx="317" cy="326" r="6" fill="#274E82"/>
</svg>
